<?xml version="1.0" encoding="utf-8"?>
<!-- Generator: Adobe Illustrator 18.1.1, SVG Export Plug-In . SVG Version: 6.00 Build 0)  -->
<svg version="1.1" id="Layer_1" xmlns="http://www.w3.org/2000/svg" xmlns:xlink="http://www.w3.org/1999/xlink" x="0px" y="0px"
	 viewBox="0 0 104 104" enable-background="new 0 0 104 104" xml:space="preserve">
<g>
	<g>
		<path fill="#FFF2C6" d="M53.1,101.1h-2.1L2.9,53.1v-2.1L50.9,2.9h2.1l48.1,48.1v2.1L53.1,101.1z M6,52l46,46l46-46L52,6L6,52z"/>
	</g>
	<g>
		<path fill="#FFF2C6" d="M77,54H27c-0.8,0-1.5-0.7-1.5-1.5S26.2,51,27,51h50c0.8,0,1.5,0.7,1.5,1.5S77.8,54,77,54z"/>
	</g>
	<g>
		<path fill="#FFF2C6" d="M66,38H38c-0.8,0-1.5-0.7-1.5-1.5S37.2,35,38,35h28c0.8,0,1.5,0.7,1.5,1.5S66.8,38,66,38z"/>
	</g>
	<g>
		<path fill="#FFF2C6" d="M66,70H38c-0.8,0-1.5-0.7-1.5-1.5S37.2,67,38,67h28c0.8,0,1.5,0.7,1.5,1.5S66.8,70,66,70z"/>
	</g>
</g>
</svg>
